<svg id="Ebene_1" data-name="Ebene 1" xmlns="http://www.w3.org/2000/svg" viewBox="0 0 1171.31 441.47"><title>moco_walls_logo_final_1c</title><path d="M195.23,348.73L158.9,435.5H99.24L0,155.13H61.82l69.42,227.23L135,367.71,181.68,243a80.06,80.06,0,0,1,11.39,20.33,119.39,119.39,0,0,1,7,26.57,145.69,145.69,0,0,1,1.36,29.56A95.34,95.34,0,0,1,195.23,348.73Z"/><polygon points="341.11 435.5 278.75 435.5 180.05 155.13 241.87 155.13 311.29 382.36 380.16 155.13 439.81 155.13 341.11 435.5"/><path d="M671.91,265.76v77q0,29.83,1.91,52.33a225.11,225.11,0,0,0,6.78,40.4H638.3a38.1,38.1,0,0,1-14.64-16,52.25,52.25,0,0,1-6-21.42l-6,9.22Q590,428.45,572.41,435a109.58,109.58,0,0,1-38.23,6.51q-20.61,0-37.15-6.24a83.84,83.84,0,0,1-27.93-16.81,73.61,73.61,0,0,1-17.62-24.95,76.08,76.08,0,0,1-6.24-30.64q0-19.52,7.6-35T478,301q17.62-11.39,46.37-19t70.5-11.93a115.78,115.78,0,0,1-3.25,13,48,48,0,0,1-6.51,13.29,44.69,44.69,0,0,1-11.39,11.12A40.93,40.93,0,0,1,557,314q-31.46,5.43-42,17.62t-10.57,26.84q0,15.74,11.39,27.39t30.36,11.66q17.35,0,35.25-9.49t33.08-29.56V263q0-30.91-15.45-50.17t-50.16-19.25a162.29,162.29,0,0,0-29,2.71,204.64,204.64,0,0,0-33.9,9.76l-14.1-37.42q26-11.39,47.72-15.19a231.88,231.88,0,0,1,39.59-3.8q54.22,0,83.51,30.1T671.91,265.76Z"/><path d="M923,0V435.5H865.54V0H923Z"/><path d="M975.53,418.15L990.17,378a201.74,201.74,0,0,0,42.57,14.64,180.91,180.91,0,0,0,37.69,4.34q23.31,0,34.44-10.57a34.83,34.83,0,0,0,11.12-26.3q0-14.1-9.76-23.32a107.39,107.39,0,0,0-24.4-16.81q-14.65-7.59-31.45-14.91a177.39,177.39,0,0,1-31.45-17.63,92.37,92.37,0,0,1-24.4-25.22q-9.77-14.91-9.77-37.15a69.24,69.24,0,0,1,5.42-26.3,71.21,71.21,0,0,1,16.55-24.13q11.1-10.84,28.2-17.63t40.4-6.78a223.67,223.67,0,0,1,35,3q18.71,3,42.57,11.12l-14.1,39a216.68,216.68,0,0,0-32.27-8.13,170.78,170.78,0,0,0-26.31-2.17q-17.36,0-28.74,7.86t-11.39,23.59a30.08,30.08,0,0,0,9.76,22.78,106.82,106.82,0,0,0,24.4,16.81q14.65,7.6,31.45,15.19a180.72,180.72,0,0,1,31.45,18.17,94.78,94.78,0,0,1,24.41,25.76q9.76,15.19,9.76,38a65.79,65.79,0,0,1-7.59,31.18,83.43,83.43,0,0,1-20.61,25.22,100.88,100.88,0,0,1-29.83,17.08,99.12,99.12,0,0,1-34.71,6.24q-10.31,0-21.69-.54a165.88,165.88,0,0,1-23.86-3,237.06,237.06,0,0,1-26.84-7.05A260.36,260.36,0,0,1,975.53,418.15Z"/><path d="M799.15,0V435.5H741.67V0h57.49Z"/></svg>